<?xml version="1.0" encoding="iso-8859-1"?>
<!-- Generator: Adobe Illustrator 19.0.0, SVG Export Plug-In . SVG Version: 6.00 Build 0)  -->
<svg version="1.1" id="Capa_1" xmlns="http://www.w3.org/2000/svg" xmlns:xlink="http://www.w3.org/1999/xlink" x="0px" y="0px"
	 viewBox="0 0 512 512" style="enable-background:new 0 0 512 512;" xml:space="preserve">
<polygon style="fill:#C6C5CB;" points="0.088,200.026 0,231.103 124.027,302.711 163.095,390.996 219.993,358.116 326.562,419.644 
	511.912,118.073 512,92.356 "/>
<polygon style="fill:#E0E0E2;" points="0.088,200.026 512,92.356 448.553,129.128 138.344,279.849 "/>
<polygon style="fill:#D8D8DA;" points="138.344,279.849 448.553,129.128 448.553,171.03 163.251,336.129 "/>
<g>
	<polygon style="fill:#ACABB1;" points="202.534,348.037 436.343,212.924 396.904,255.884 163.095,390.996 	"/>
	<polygon style="fill:#ACABB1;" points="326.65,388.567 512,92.356 511.912,118.073 326.562,419.644 	"/>
</g>
<polygon style="fill:#E0E0E2;" points="188.394,308.744 448.553,129.128 512,92.356 326.65,388.567 "/>
<polygon style="fill:#C6C5CB;" points="326.65,388.567 326.562,419.644 202.534,348.037 163.095,390.996 124.027,302.711 0,231.103 
	0.088,200.026 138.344,279.849 163.251,336.129 188.394,308.744 "/>
<g>
</g>
<g>
</g>
<g>
</g>
<g>
</g>
<g>
</g>
<g>
</g>
<g>
</g>
<g>
</g>
<g>
</g>
<g>
</g>
<g>
</g>
<g>
</g>
<g>
</g>
<g>
</g>
<g>
</g>
</svg>
